<?xml version="1.0" encoding="UTF-8" standalone="no"?>
<!DOCTYPE svg PUBLIC "-//W3C//DTD SVG 1.1//EN"
 "http://www.w3.org/Graphics/SVG/1.1/DTD/svg11.dtd">
<!-- Generated by graphviz version 16.1.0 (20260904.0139)
 -->
<!-- Title: holoflow_graph Pages: 1 -->
<svg width="646pt" height="260pt"
 viewBox="0.00 0.00 646.00 260.00" xmlns="http://www.w3.org/2000/svg" xmlns:xlink="http://www.w3.org/1999/xlink">
<g id="graph0" class="graph" transform="scale(1 1) rotate(0) translate(18 242.2)">
<title>holoflow_graph</title>
<!-- L0 -->
<!-- L1 -->
<!-- L0&#45;&gt;L1 -->
<!-- mask -->
<g id="node11" class="node">
<title>mask</title>
<path fill="#f5f7ff" stroke="#4051b5" d="M454.38,-224.2C454.38,-224.2 374.34,-224.2 374.34,-224.2 368.34,-224.2 362.34,-218.2 362.34,-212.2 362.34,-212.2 362.34,-194.8 362.34,-194.8 362.34,-188.8 368.34,-182.8 374.34,-182.8 374.34,-182.8 454.38,-182.8 454.38,-182.8 460.38,-182.8 466.38,-188.8 466.38,-194.8 466.38,-194.8 466.38,-212.2 466.38,-212.2 466.38,-218.2 460.38,-224.2 454.38,-224.2"/>
<text xml:space="preserve" text-anchor="middle" x="414.36" y="-206.55" font-family="Helvetica,sans-Serif" font-size="11.00">mask</text>
<text xml:space="preserve" text-anchor="middle" x="414.36" y="-193.05" font-family="Helvetica,sans-Serif" font-size="11.00">(BandpassMask)</text>
</g>
<!-- L0&#45;&gt;mask -->
<!-- R0 -->
<!-- R1 -->
<!-- R0&#45;&gt;R1 -->
<!-- L2 -->
<!-- L1&#45;&gt;L2 -->
<!-- load -->
<g id="node7" class="node">
<title>load</title>
<path fill="#f5f7ff" stroke="#4051b5" d="M94.38,-132.8C94.38,-132.8 44.34,-132.8 44.34,-132.8 38.34,-132.8 32.34,-126.8 32.34,-120.8 32.34,-120.8 32.34,-103.4 32.34,-103.4 32.34,-97.4 38.34,-91.4 44.34,-91.4 44.34,-91.4 94.38,-91.4 94.38,-91.4 100.38,-91.4 106.38,-97.4 106.38,-103.4 106.38,-103.4 106.38,-120.8 106.38,-120.8 106.38,-126.8 100.38,-132.8 94.38,-132.8"/>
<text xml:space="preserve" text-anchor="middle" x="69.36" y="-115.15" font-family="Helvetica,sans-Serif" font-size="11.00">load</text>
<text xml:space="preserve" text-anchor="middle" x="69.36" y="-101.65" font-family="Helvetica,sans-Serif" font-size="11.00">(LoadNpy)</text>
</g>
<!-- L1&#45;&gt;load -->
<!-- R2 -->
<!-- R1&#45;&gt;R2 -->
<!-- save -->
<g id="node16" class="node">
<title>save</title>
<path fill="#f5f7ff" stroke="#4051b5" d="M163.75,-41.4C163.75,-41.4 112.97,-41.4 112.97,-41.4 106.97,-41.4 100.97,-35.4 100.97,-29.4 100.97,-29.4 100.97,-12 100.97,-12 100.97,-6 106.97,0 112.97,0 112.97,0 163.75,0 163.75,0 169.75,0 175.75,-6 175.75,-12 175.75,-12 175.75,-29.4 175.75,-29.4 175.75,-35.4 169.75,-41.4 163.75,-41.4"/>
<text xml:space="preserve" text-anchor="middle" x="138.36" y="-23.75" font-family="Helvetica,sans-Serif" font-size="11.00">save</text>
<text xml:space="preserve" text-anchor="middle" x="138.36" y="-10.25" font-family="Helvetica,sans-Serif" font-size="11.00">(SaveNpy)</text>
</g>
<!-- L2&#45;&gt;save -->
<!-- upload -->
<g id="node8" class="node">
<title>upload</title>
<path fill="#f5f7ff" stroke="#4051b5" d="M245.88,-132.8C245.88,-132.8 150.84,-132.8 150.84,-132.8 144.84,-132.8 138.84,-126.8 138.84,-120.8 138.84,-120.8 138.84,-103.4 138.84,-103.4 138.84,-97.4 144.84,-91.4 150.84,-91.4 150.84,-91.4 245.88,-91.4 245.88,-91.4 251.88,-91.4 257.88,-97.4 257.88,-103.4 257.88,-103.4 257.88,-120.8 257.88,-120.8 257.88,-126.8 251.88,-132.8 245.88,-132.8"/>
<text xml:space="preserve" text-anchor="middle" x="198.36" y="-115.15" font-family="Helvetica,sans-Serif" font-size="11.00">upload</text>
<text xml:space="preserve" text-anchor="middle" x="198.36" y="-101.65" font-family="Helvetica,sans-Serif" font-size="11.00">(Memcpy to Device)</text>
</g>
<!-- load&#45;&gt;upload -->
<!-- load&#45;&gt;upload -->
<g id="edge18" class="edge">
<title>load:e&#45;&gt;upload:w</title>
<path fill="none" stroke="#5f6368" d="M106.38,-112.1C106.38,-112.1 118.13,-112.1 127.49,-112.1"/>
<polygon fill="#5f6368" stroke="#5f6368" points="129.83,-114.73 137.33,-112.1 129.83,-109.48 129.83,-114.73"/>
<text xml:space="preserve" text-anchor="middle" x="136.22" y="-114.05" font-family="Helvetica,sans-Serif" font-size="9.00">0</text>
<text xml:space="preserve" text-anchor="middle" x="109" y="-114.05" font-family="Helvetica,sans-Serif" font-size="9.00">0</text>
</g>
<!-- upload_queue -->
<g id="node9" class="node">
<title>upload_queue</title>
<path fill="#f5f7ff" stroke="#4051b5" d="M369,-132.8C369,-132.8 301.72,-132.8 301.72,-132.8 295.72,-132.8 289.72,-126.8 289.72,-120.8 289.72,-120.8 289.72,-103.4 289.72,-103.4 289.72,-97.4 295.72,-91.4 301.72,-91.4 301.72,-91.4 369,-91.4 369,-91.4 375,-91.4 381,-97.4 381,-103.4 381,-103.4 381,-120.8 381,-120.8 381,-126.8 375,-132.8 369,-132.8"/>
<text xml:space="preserve" text-anchor="middle" x="335.36" y="-115.15" font-family="Helvetica,sans-Serif" font-size="11.00">upload_queue</text>
<text xml:space="preserve" text-anchor="middle" x="335.36" y="-101.65" font-family="Helvetica,sans-Serif" font-size="11.00">(BatchQueue)</text>
</g>
<!-- upload&#45;&gt;upload_queue -->
<!-- upload&#45;&gt;upload_queue -->
<g id="edge19" class="edge">
<title>upload:e&#45;&gt;upload_queue:w</title>
<path fill="none" stroke="#5f6368" d="M257.88,-112.1C257.88,-112.1 269.1,-112.1 278.22,-112.1"/>
<polygon fill="#5f6368" stroke="#5f6368" points="280.7,-114.73 288.2,-112.1 280.7,-109.48 280.7,-114.73"/>
<text xml:space="preserve" text-anchor="middle" x="287.09" y="-114.05" font-family="Helvetica,sans-Serif" font-size="9.00">0</text>
<text xml:space="preserve" text-anchor="middle" x="260.5" y="-114.05" font-family="Helvetica,sans-Serif" font-size="9.00">0</text>
</g>
<!-- fft -->
<g id="node10" class="node">
<title>fft</title>
<path fill="#f5f7ff" stroke="#4051b5" d="M465.88,-132.8C465.88,-132.8 424.84,-132.8 424.84,-132.8 418.84,-132.8 412.84,-126.8 412.84,-120.8 412.84,-120.8 412.84,-103.4 412.84,-103.4 412.84,-97.4 418.84,-91.4 424.84,-91.4 424.84,-91.4 465.88,-91.4 465.88,-91.4 471.88,-91.4 477.88,-97.4 477.88,-103.4 477.88,-103.4 477.88,-120.8 477.88,-120.8 477.88,-126.8 471.88,-132.8 465.88,-132.8"/>
<text xml:space="preserve" text-anchor="middle" x="445.36" y="-115.15" font-family="Helvetica,sans-Serif" font-size="11.00">fft</text>
<text xml:space="preserve" text-anchor="middle" x="445.36" y="-101.65" font-family="Helvetica,sans-Serif" font-size="11.00">(RFFT2)</text>
</g>
<!-- upload_queue&#45;&gt;fft -->
<!-- upload_queue&#45;&gt;fft -->
<g id="edge20" class="edge">
<title>upload_queue:e&#45;&gt;fft:w</title>
<path fill="none" stroke="#5f6368" d="M381,-112.1C381,-112.1 392.23,-112.1 401.35,-112.1"/>
<polygon fill="#5f6368" stroke="#5f6368" points="403.83,-114.73 411.33,-112.1 403.83,-109.48 403.83,-114.73"/>
<text xml:space="preserve" text-anchor="middle" x="410.22" y="-114.05" font-family="Helvetica,sans-Serif" font-size="9.00">0</text>
<text xml:space="preserve" text-anchor="middle" x="383.63" y="-114.05" font-family="Helvetica,sans-Serif" font-size="9.00">0</text>
</g>
<!-- multiply -->
<g id="node12" class="node">
<title>multiply</title>
<path fill="#f5f7ff" stroke="#4051b5" d="M564.63,-132.8C564.63,-132.8 522.09,-132.8 522.09,-132.8 516.09,-132.8 510.09,-126.8 510.09,-120.8 510.09,-120.8 510.09,-103.4 510.09,-103.4 510.09,-97.4 516.09,-91.4 522.09,-91.4 522.09,-91.4 564.63,-91.4 564.63,-91.4 570.63,-91.4 576.63,-97.4 576.63,-103.4 576.63,-103.4 576.63,-120.8 576.63,-120.8 576.63,-126.8 570.63,-132.8 564.63,-132.8"/>
<text xml:space="preserve" text-anchor="middle" x="543.36" y="-115.15" font-family="Helvetica,sans-Serif" font-size="11.00">multiply</text>
<text xml:space="preserve" text-anchor="middle" x="543.36" y="-101.65" font-family="Helvetica,sans-Serif" font-size="11.00">(Multiply)</text>
</g>
<!-- fft&#45;&gt;multiply -->
<!-- fft&#45;&gt;multiply -->
<g id="edge21" class="edge">
<title>fft:e&#45;&gt;multiply:w</title>
<path fill="none" stroke="#5f6368" d="M477.88,-112.1C477.88,-112.1 489.54,-112.1 498.82,-112.1"/>
<polygon fill="#5f6368" stroke="#5f6368" points="501.08,-114.73 508.58,-112.1 501.08,-109.48 501.08,-114.73"/>
<text xml:space="preserve" text-anchor="middle" x="507.47" y="-114.05" font-family="Helvetica,sans-Serif" font-size="9.00">0</text>
<text xml:space="preserve" text-anchor="middle" x="480.5" y="-114.05" font-family="Helvetica,sans-Serif" font-size="9.00">0</text>
</g>
<!-- mask&#45;&gt;R0 -->
<!-- mask&#45;&gt;multiply -->
<g id="edge22" class="edge">
<title>mask:s&#45;&gt;multiply:n</title>
<path fill="none" stroke="#5f6368" d="M414.36,-182.8C414.36,-182.8 507.05,-146.87 535.29,-135.93"/>
<polygon fill="#5f6368" stroke="#5f6368" points="535.9,-138.51 541.95,-133.35 534.01,-133.61 535.9,-138.51"/>
<text xml:space="preserve" text-anchor="middle" x="540.74" y="-134.75" font-family="Helvetica,sans-Serif" font-size="9.00">1</text>
<text xml:space="preserve" text-anchor="middle" x="411.74" y="-174.25" font-family="Helvetica,sans-Serif" font-size="9.00">0</text>
</g>
<!-- multiply&#45;&gt;R1 -->
<!-- ifft -->
<g id="node13" class="node">
<title>ifft</title>
<path fill="#f5f7ff" stroke="#4051b5" d="M562.38,-41.4C562.38,-41.4 518.34,-41.4 518.34,-41.4 512.34,-41.4 506.34,-35.4 506.34,-29.4 506.34,-29.4 506.34,-12 506.34,-12 506.34,-6 512.34,0 518.34,0 518.34,0 562.38,0 562.38,0 568.38,0 574.38,-6 574.38,-12 574.38,-12 574.38,-29.4 574.38,-29.4 574.38,-35.4 568.38,-41.4 562.38,-41.4"/>
<text xml:space="preserve" text-anchor="middle" x="540.36" y="-23.75" font-family="Helvetica,sans-Serif" font-size="11.00">ifft</text>
<text xml:space="preserve" text-anchor="middle" x="540.36" y="-10.25" font-family="Helvetica,sans-Serif" font-size="11.00">(IRFFT2)</text>
</g>
<!-- multiply&#45;&gt;ifft -->
<g id="edge23" class="edge">
<title>multiply:s&#45;&gt;ifft:n</title>
<path fill="none" stroke="#5f6368" d="M543.36,-91.4C543.36,-91.4 541.74,-64.43 540.88,-50.11"/>
<polygon fill="#5f6368" stroke="#5f6368" points="543.52,-50.24 540.45,-42.91 538.28,-50.55 543.52,-50.24"/>
<text xml:space="preserve" text-anchor="middle" x="537.74" y="-43.35" font-family="Helvetica,sans-Serif" font-size="9.00">0</text>
<text xml:space="preserve" text-anchor="middle" x="540.74" y="-82.85" font-family="Helvetica,sans-Serif" font-size="9.00">0</text>
</g>
<!-- ifft&#45;&gt;R2 -->
<!-- download_queue -->
<g id="node14" class="node">
<title>download_queue</title>
<path fill="#f5f7ff" stroke="#4051b5" d="M459.13,-41.4C459.13,-41.4 377.59,-41.4 377.59,-41.4 371.59,-41.4 365.59,-35.4 365.59,-29.4 365.59,-29.4 365.59,-12 365.59,-12 365.59,-6 371.59,0 377.59,0 377.59,0 459.13,0 459.13,0 465.13,0 471.13,-6 471.13,-12 471.13,-12 471.13,-29.4 471.13,-29.4 471.13,-35.4 465.13,-41.4 459.13,-41.4"/>
<text xml:space="preserve" text-anchor="middle" x="418.36" y="-23.75" font-family="Helvetica,sans-Serif" font-size="11.00">download_queue</text>
<text xml:space="preserve" text-anchor="middle" x="418.36" y="-10.25" font-family="Helvetica,sans-Serif" font-size="11.00">(BatchQueue)</text>
</g>
<!-- ifft&#45;&gt;download_queue -->
<g id="edge24" class="edge">
<title>ifft:w&#45;&gt;download_queue:e</title>
<path fill="none" stroke="#5f6368" d="M506.34,-20.7C506.34,-20.7 492.59,-20.7 482.27,-20.7"/>
<polygon fill="#5f6368" stroke="#5f6368" points="480.14,-18.08 472.64,-20.7 480.14,-23.33 480.14,-18.08"/>
<text xml:space="preserve" text-anchor="middle" x="473.75" y="-22.65" font-family="Helvetica,sans-Serif" font-size="9.00">0</text>
<text xml:space="preserve" text-anchor="middle" x="503.72" y="-22.65" font-family="Helvetica,sans-Serif" font-size="9.00">0</text>
</g>
<!-- download_queue&#45;&gt;ifft -->
<!-- download -->
<g id="node15" class="node">
<title>download</title>
<path fill="#f5f7ff" stroke="#4051b5" d="M315.63,-41.4C315.63,-41.4 231.09,-41.4 231.09,-41.4 225.09,-41.4 219.09,-35.4 219.09,-29.4 219.09,-29.4 219.09,-12 219.09,-12 219.09,-6 225.09,0 231.09,0 231.09,0 315.63,0 315.63,0 321.63,0 327.63,-6 327.63,-12 327.63,-12 327.63,-29.4 327.63,-29.4 327.63,-35.4 321.63,-41.4 315.63,-41.4"/>
<text xml:space="preserve" text-anchor="middle" x="273.36" y="-23.75" font-family="Helvetica,sans-Serif" font-size="11.00">download</text>
<text xml:space="preserve" text-anchor="middle" x="273.36" y="-10.25" font-family="Helvetica,sans-Serif" font-size="11.00">(Memcpy to Host)</text>
</g>
<!-- download_queue&#45;&gt;download -->
<g id="edge25" class="edge">
<title>download_queue:w&#45;&gt;download:e</title>
<path fill="none" stroke="#5f6368" d="M365.59,-20.7C365.59,-20.7 350.01,-20.7 338.81,-20.7"/>
<polygon fill="#5f6368" stroke="#5f6368" points="336.64,-18.08 329.14,-20.7 336.64,-23.33 336.64,-18.08"/>
<text xml:space="preserve" text-anchor="middle" x="330.25" y="-22.65" font-family="Helvetica,sans-Serif" font-size="9.00">0</text>
<text xml:space="preserve" text-anchor="middle" x="362.97" y="-22.65" font-family="Helvetica,sans-Serif" font-size="9.00">0</text>
</g>
<!-- download&#45;&gt;download_queue -->
<!-- download&#45;&gt;save -->
<g id="edge26" class="edge">
<title>download:w&#45;&gt;save:e</title>
<path fill="none" stroke="#5f6368" d="M219.09,-20.7C219.09,-20.7 199.98,-20.7 187.14,-20.7"/>
<polygon fill="#5f6368" stroke="#5f6368" points="184.77,-18.08 177.27,-20.7 184.77,-23.33 184.77,-18.08"/>
<text xml:space="preserve" text-anchor="middle" x="178.38" y="-22.65" font-family="Helvetica,sans-Serif" font-size="9.00">0</text>
<text xml:space="preserve" text-anchor="middle" x="216.46" y="-22.65" font-family="Helvetica,sans-Serif" font-size="9.00">0</text>
</g>
<!-- save&#45;&gt;download -->
</g>
</svg>
